HIERARCHY
ROOT joint_Root
{
	OFFSET 0.0 0.0 0.0
	CHANNELS 6 Xposition Yposition Zposition Zrotation Xrotation Yrotation 
	JOINT Hips
	{
		OFFSET -0.726466 93.3139 -2.00062
		CHANNELS 6 Xposition Yposition Zposition Zrotation Xrotation Yrotation 
		JOINT Spine
		{
			OFFSET 15.7357 0.0 0.0
			CHANNELS 6 Xposition Yposition Zposition Zrotation Xrotation Yrotation 
			JOINT Chest
			{
				OFFSET 8.98455 -0.406207 0.0
				CHANNELS 6 Xposition Yposition Zposition Zrotation Xrotation Yrotation 
				JOINT Neck
				{
					OFFSET 16.3773 0.0 0.0
					CHANNELS 6 Xposition Yposition Zposition Zrotation Xrotation Yrotation 
					JOINT Head
					{
						OFFSET 6.45672 0.0 0.0
						CHANNELS 6 Xposition Yposition Zposition Zrotation Xrotation Yrotation 
						End Site
						{
							OFFSET 0.0 0.0 0.0
						}
					}
				}
				JOINT Shoulder_L
				{
					OFFSET 12.9942 -0.242716 4.98039
					CHANNELS 6 Xposition Yposition Zposition Zrotation Xrotation Yrotation 
					JOINT UpperArm_L
					{
						OFFSET 5.34809 0.0 0.0
						CHANNELS 6 Xposition Yposition Zposition Zrotation Xrotation Yrotation 
						JOINT LowerArm_L
						{
							OFFSET 24.3286 1.87007e-05 0.0
							CHANNELS 6 Xposition Yposition Zposition Zrotation Xrotation Yrotation 
							JOINT Hand_L
							{
								OFFSET 22.2916 0.0 0.0
								CHANNELS 6 Xposition Yposition Zposition Zrotation Xrotation Yrotation 
								End Site
								{
									OFFSET 0.0 0.0 0.0
								}
							}
						}
					}
				}
				JOINT Shoulder_R
				{
					OFFSET 12.9945 -0.242716 -4.98039
					CHANNELS 6 Xposition Yposition Zposition Zrotation Xrotation Yrotation 
					JOINT UpperArm_R
					{
						OFFSET -5.34813 0.0 0.0
						CHANNELS 6 Xposition Yposition Zposition Zrotation Xrotation Yrotation 
						JOINT LowerArm_R
						{
							OFFSET -24.3289 0.000322201 0.0
							CHANNELS 6 Xposition Yposition Zposition Zrotation Xrotation Yrotation 
							JOINT Hand_R
							{
								OFFSET -22.2915 -0.000108084 0.0
								CHANNELS 6 Xposition Yposition Zposition Zrotation Xrotation Yrotation 
								End Site
								{
									OFFSET 0.0 0.0 0.0
								}
							}
						}
					}
				}
			}
		}
		JOINT UpperLeg_L
		{
			OFFSET -2.19248 -6.46944 0.0
			CHANNELS 6 Xposition Yposition Zposition Zrotation Xrotation Yrotation 
			JOINT LowerLeg_L
			{
				OFFSET 39.0811 0.0 -1.23785e-05
				CHANNELS 6 Xposition Yposition Zposition Zrotation Xrotation Yrotation 
				JOINT Foot_L
				{
					OFFSET 40.9854 0.0 -1.26872e-05
					CHANNELS 6 Xposition Yposition Zposition Zrotation Xrotation Yrotation 
					JOINT Toes_L
					{
						OFFSET 11.7543 0.0 0.0
						CHANNELS 6 Xposition Yposition Zposition Zrotation Xrotation Yrotation 
						End Site
						{
							OFFSET 0.0 0.0 0.0
						}
					}
				}
			}
		}
		JOINT UpperLeg_R
		{
			OFFSET -2.19251 6.46944 0.0
			CHANNELS 6 Xposition Yposition Zposition Zrotation Xrotation Yrotation 
			JOINT LowerLeg_R
			{
				OFFSET -39.0811 -0.00228153 -0.0401928
				CHANNELS 6 Xposition Yposition Zposition Zrotation Xrotation Yrotation 
				JOINT Foot_R
				{
					OFFSET -40.9854 0.0 0.0
					CHANNELS 6 Xposition Yposition Zposition Zrotation Xrotation Yrotation 
					JOINT Toes_R
					{
						OFFSET -11.7543 0.0 0.0
						CHANNELS 6 Xposition Yposition Zposition Zrotation Xrotation Yrotation 
						End Site
						{
							OFFSET 0.0 0.0 0.0
						}
					}
				}
			}
		}
	}
}
MOTION
Frames:	4
Frame Time:	0.0333333
0.000000 0.000000 0.000000 0.000000 0.000000 -0.000000 -239.511000 90.046200 209.230000 56.836000 86.081300 35.051600 15.735700 0.000005 -0.000001 90.645600 81.326600 -88.649800 8.984550 -0.406207 -0.000000 9.578940 0.225910 3.969700 16.377300 -0.000001 -0.000001 8.476180 -0.645531 -1.078790 6.456720 -0.000001 -0.000000 2.509770 -0.341024 4.196370 12.994200 -0.242716 4.980390 -88.180500 -4.541730 -68.140400 5.348090 -0.000007 -0.000001 -68.633800 38.352500 -3.119680 24.328600 0.000019 0.000005 7.705060 7.226390 -47.084400 22.291600 -0.000001 0.000005 2.374790 5.571770 -9.776280 12.994500 -0.242716 -4.980390 88.802200 3.008190 -68.277600 -5.348130 -0.000001 -0.000004 -58.684800 28.173200 -15.288100 -24.328900 0.000322 -0.000009 3.250880 4.177910 -37.950400 -22.291500 -0.000108 -0.000004 3.128110 5.515820 -7.186990 -2.192480 -6.469440 -0.000000 -170.794000 -12.389900 -14.690100 39.081100 -0.000007 -0.000012 0.218261 -0.108100 63.650700 40.985400 -0.000006 -0.000013 3.756100 -4.078530 -57.753500 11.754300 -0.000000 0.000003 -0.004175 -0.053255 -18.743200 -2.192510 6.469440 -0.000001 -178.471000 17.337500 165.811000 -39.081100 -0.002282 -0.040193 0.061416 -0.081940 35.350800 -40.985400 0.000008 0.000006 4.470410 1.125870 -69.553800 -11.754300 -0.000006 -0.000006 -0.006738 -0.077396 -19.723600
0.000000 0.000000 0.000000 0.000000 0.000000 -0.000000 -237.205000 90.675100 209.641000 67.499700 85.850000 24.280000 15.735700 0.000005 -0.000001 94.501800 81.414600 -92.902900 8.984550 -0.406207 -0.000000 9.336550 1.362090 3.084040 16.377300 -0.000001 -0.000001 8.372770 -0.718387 -0.792123 6.456720 -0.000001 -0.000000 2.546080 -1.505590 4.235660 12.994200 -0.242716 4.980390 -88.115500 -4.531550 -67.390700 5.348090 -0.000007 -0.000001 -70.314200 37.265000 0.331525 24.328600 0.000019 0.000005 6.589860 6.363950 -46.184100 22.291600 -0.000001 0.000005 1.857060 5.569230 -9.656660 12.994500 -0.242716 -4.980390 89.011600 2.564870 -68.916500 -5.348130 -0.000001 -0.000004 -57.438900 28.391500 -18.553400 -24.328900 0.000322 -0.000009 3.197430 3.792210 -40.199200 -22.291500 -0.000108 -0.000004 3.455400 5.517630 -7.262160 -2.192480 -6.469440 -0.000000 -172.499000 -15.343000 -18.252600 39.081100 -0.000007 -0.000012 0.201705 -0.115455 60.212400 40.985400 -0.000006 -0.000013 2.508030 -3.278150 -58.036100 11.754300 -0.000000 0.000003 -0.003896 -0.050366 -18.625500 -2.192510 6.469440 -0.000001 -179.414000 17.874200 168.994000 -39.081100 -0.002282 -0.040193 0.050667 -0.074996 32.277900 -40.985400 0.000008 0.000006 4.367160 2.263520 -69.456100 -11.754300 -0.000006 -0.000006 -0.006913 -0.078914 -19.785600
0.000000 0.000000 0.000000 0.000000 0.000000 -0.000000 -234.860000 91.075000 210.015000 72.891000 85.936400 19.088000 15.735700 0.000005 -0.000001 97.211500 81.331200 -95.946400 8.984550 -0.406207 -0.000000 9.416510 2.182250 2.348560 16.377300 -0.000001 -0.000001 8.209280 -0.862794 -0.611468 6.456720 -0.000001 -0.000000 2.519690 -2.568900 4.350410 12.994200 -0.242716 4.980390 -88.089700 -4.439610 -66.690200 5.348090 -0.000007 -0.000001 -71.043000 36.466900 2.985770 24.328600 0.000019 0.000005 5.985970 5.931880 -45.415400 22.291600 -0.000001 0.000005 1.655930 5.564990 -9.435460 12.994500 -0.242716 -4.980390 89.105900 2.367230 -69.302600 -5.348130 -0.000001 -0.000004 -55.037500 28.883200 -22.382800 -24.328900 0.000322 -0.000009 2.898590 3.204900 -42.180300 -22.291500 -0.000108 -0.000004 3.794810 5.517130 -7.239870 -2.192480 -6.469440 -0.000000 -174.146000 -16.958400 -20.854500 39.081100 -0.000007 -0.000012 0.152866 -0.108226 54.701300 40.985400 -0.000006 -0.000013 1.943510 -3.841900 -58.570400 11.754300 -0.000000 0.000003 -0.002985 -0.040443 -18.221500 -2.192510 6.469440 -0.000001 179.603000 18.718000 172.448000 -39.081100 -0.002282 -0.040193 0.043499 -0.071027 29.507000 -40.985400 0.000008 0.000006 4.259130 3.200690 -69.762800 -11.754300 -0.000006 -0.000006 -0.006380 -0.074248 -19.595200
0.000000 0.000000 0.000000 0.000000 0.000000 -0.000000 -232.563000 91.232400 210.356000 74.583200 86.150900 17.475800 15.735700 0.000005 -0.000001 99.157700 81.256900 -98.137000 8.984550 -0.406207 -0.000000 9.481440 2.782220 1.809240 16.377300 -0.000001 -0.000001 8.131660 -1.010420 -0.522513 6.456720 -0.000001 -0.000000 2.374450 -3.438060 4.342710 12.994200 -0.242716 4.980390 -88.047700 -4.412560 -66.104100 5.348090 -0.000007 -0.000001 -71.368700 35.681900 5.096780 24.328600 0.000019 0.000005 5.668270 5.814390 -44.413700 22.291600 -0.000001 0.000005 1.489740 5.564650 -9.417530 12.994500 -0.242716 -4.980390 89.166500 2.244850 -69.624700 -5.348130 -0.000001 -0.000004 -52.043800 29.034700 -26.443200 -24.328900 0.000322 -0.000009 2.622680 2.736770 -43.825000 -22.291500 -0.000108 -0.000004 3.582280 5.517760 -7.266510 -2.192480 -6.469440 -0.000000 -175.535000 -17.265200 -22.755900 39.081100 -0.000007 -0.000012 0.095476 -0.088273 47.243900 40.985400 -0.000006 -0.000013 1.979050 -4.422390 -58.775300 11.754300 -0.000000 0.000003 -0.003364 -0.044659 -18.393100 -2.192510 6.469440 -0.000001 178.917000 19.111600 175.459000 -39.081100 -0.002282 -0.040193 0.038359 -0.067833 27.326900 -40.985400 0.000008 0.000006 4.074000 3.493130 -70.359600 -11.754300 -0.000006 -0.000006 -0.006433 -0.074723 -19.614600
